<svg xmlns="http://www.w3.org/2000/svg" viewBox="0 0 512 512">
  <defs>
    <linearGradient id="bgGrad" x1="0%" y1="0%" x2="100%" y2="100%">
      <stop offset="0%" style="stop-color:#3B82F6"/>
      <stop offset="50%" style="stop-color:#6366F1"/>
      <stop offset="100%" style="stop-color:#A855F7"/>
    </linearGradient>
    <linearGradient id="plusGrad" x1="0%" y1="0%" x2="100%" y2="100%">
      <stop offset="0%" style="stop-color:#34D399"/>
      <stop offset="100%" style="stop-color:#10B981"/>
    </linearGradient>
  </defs>
  <!-- Background -->
  <rect width="512" height="512" rx="100" fill="url(#bgGrad)"/>
  <!-- Tooth shape -->
  <path d="M256 60c-70 0-130 45-130 120c0 50 15 90 30 140c15 50 25 100 40 130c10 20 30 30 60 30s50-10 60-30c15-30 25-80 40-130c15-50 30-90 30-140c0-75-60-120-130-120z" fill="white" fill-opacity="0.95"/>
  <!-- Tooth roots -->
  <ellipse cx="210" cy="420" rx="25" ry="45" fill="white" fill-opacity="0.95"/>
  <ellipse cx="302" cy="420" rx="25" ry="45" fill="white" fill-opacity="0.95"/>
  <!-- Plus sign -->
  <g transform="translate(340, 100)">
    <rect x="25" y="0" width="30" height="80" rx="15" fill="url(#plusGrad)"/>
    <rect x="0" y="25" width="80" height="30" rx="15" fill="url(#plusGrad)"/>
  </g>
</svg>
